# xmcd
#
# Track frame offsets: 
#        182
#        11987
#        23645
#        34935
#        44725
#        57937
#        68650
#        80835
#        93257
#        104400
#        117132
#        129510
#        141212
#        152260
#        163015
#        174052
#        185355
#        194622
#        206032
#        215257
#        226390
#        237375
#        247890
#        259432
#        268227
#        279830
#        290415
#        302780
#        313532
#        323135
#
# Disc length: 4440 seconds
#
# Revision: 2
# Processed by: cddbd v1.4PL0 Copyright (c) Steve Scherf et al.
# Submitted via: ExactAudioCopy v0.90b4
#
DISCID=b111561e
DTITLE=Various Artist - Sound of New Orleans 1947-1974
DYEAR=1996
DGENRE=
TTITLE0=Fats Domino - The Fat Man
TTITLE1=Jewel King - 3 x 7 =21
TTITLE2=Archibald - Stack a Lee
TTITLE3=Fats Domino - Goin' Home
TTITLE4=Clarence Garlow - Bon Ton Roulet
TTITLE5=Bees - Toy Bell
TTITLE6=Smiley Lewis - Blue Monday
TTITLE7=Spiders - I Didn't Want to Do It
TTITLE8=Wee Willie Wayne - Travelin' Mood
TTITLE9=Shirley and Lee - Feel So Good
TTITLE10=Smiley Lewis - I Hear You Knocking
TTITLE11=Spiders - Witchcraft
TTITLE12=Fats Domino - Ain't That A Shame
TTITLE13=Shirley and Lee - Let the Good Times Roll
TTITLE14=Smiley Lewis - One Night
TTITLE15=Amos Milburn - Chicken Shack Boogie
TTITLE16=Roy Brown - Let the Four Winds Blow
TTITLE17=Chris Kenner - Sick and Tired
TTITLE18=Fats Domino - I'm Walkin'
TTITLE19=Dave Bartholomew - The Monkey
TTITLE20=Bobby Mitchell - I'm Gonna Be a Wheel Someday
TTITLE21=Jessie Hill - Ooh Poo Pah Doo Part 1
TTITLE22=Earl King - Come On Part 1
TTITLE23=Fats Domino - Walking to New Orleans
TTITLE24=Ernie K-Doe - Mother-in-law
TTITLE25=Showmen - It Will Stand
TTITLE26=Ernie K-Doe - A Certain Girl
TTITLE27=Barbara George - I Know (You Don't Love Me No More)
TTITLE28=Irma Thomas - It's Raining
TTITLE29=Benny Spellman - Fortune Telling
EXTD=
EXTT0=Fats Domino\n
EXTT1=Jewel King\n
EXTT2=Archibald\n
EXTT3=Fats Domino\n
EXTT4=Clarence Garlow\n
EXTT5=Toy Bell\n
EXTT6=Smiley Lewis\n
EXTT7=The Spiders\n
EXTT8=Wee Willie Wayne\n
EXTT9=Shirley and Lee\n
EXTT10=Smiley Lewis\n
EXTT11=The Spiders\n
EXTT12=Fats Domino\n
EXTT13=Shirley and Lee\n
EXTT14=Smiley Lewis\n
EXTT15=Amos Milburn\n
EXTT16=Roy Brown\n
EXTT17=Chris Kenner\n
EXTT18=Fats Domino\n
EXTT19=Dave Bartholomew\n
EXTT20=Bobby Mitchell\n
EXTT21=Jessie Hill\n
EXTT22=Earl King\n
EXTT23=Fats Domino\n
EXTT24=Ernie K-Doe\n
EXTT25=The Showmen\n
EXTT26=Ernie K-Doe\n
EXTT27=Barbara George\n
EXTT28=Irma Thomas\n
EXTT29=Benny Spellman\n
PLAYORDER=
